<svg width="118" height="106" viewBox="0 0 118 106" fill="none" xmlns="http://www.w3.org/2000/svg">
<path d="M79.4512 36.4899C71.0812 36.4899 62.5612 36.1499 54.5912 33.9299C46.7712 31.7599 39.5912 27.5499 33.1912 22.6799C29.0012 19.5099 25.1912 16.9899 19.7512 17.3699C14.4247 17.6615 9.3336 19.6601 5.23121 23.0699C-1.68879 29.0699 -0.648793 40.2999 2.12121 48.1899C6.28121 60.0699 18.9412 68.2999 29.7012 73.6799C42.1312 79.8899 55.7912 83.4899 69.4812 85.5699C81.4812 87.3899 96.9012 88.7199 107.301 80.8799C116.851 73.6799 119.471 57.2399 117.131 46.1399C116.564 42.8578 114.818 39.8957 112.221 37.8099C105.511 32.9099 95.5012 36.1799 87.9612 36.3499C85.1612 36.4099 82.3112 36.4799 79.4512 36.4899Z" fill="#F2F2F2"/>
<path d="M58.9717 105.02C79.2461 105.02 95.6817 103.995 95.6817 102.73C95.6817 101.465 79.2461 100.44 58.9717 100.44C38.6973 100.44 22.2617 101.465 22.2617 102.73C22.2617 103.995 38.6973 105.02 58.9717 105.02Z" fill="#F2F2F2"/>
<path d="M6.33156 72.4999C6.8728 72.4999 7.31156 72.0612 7.31156 71.5199C7.31156 70.9787 6.8728 70.5399 6.33156 70.5399C5.79032 70.5399 5.35156 70.9787 5.35156 71.5199C5.35156 72.0612 5.79032 72.4999 6.33156 72.4999Z" fill="#CFCFCF"/>
<path d="M48.5713 84.9299V89.2399" stroke="#BABABA" strokeLinecap="round" strokeLinejoin="round"/>
<path d="M46.4209 87.09H50.7209" stroke="#BABABA" strokeLinecap="round" strokeLinejoin="round"/>
<path d="M100.201 17.1499H17.7311C15.5993 17.1499 13.8711 18.8781 13.8711 21.0099V77.5799C13.8711 79.7117 15.5993 81.4399 17.7311 81.4399H100.201C102.333 81.4399 104.061 79.7117 104.061 77.5799V21.0099C104.061 18.8781 102.333 17.1499 100.201 17.1499Z" fill="white" stroke="#BABABA" strokeLinecap="round" strokeLinejoin="round"/>
<path d="M91.9017 34.25H26.0217C24.4974 34.25 23.2617 35.4857 23.2617 37.01V72.96C23.2617 74.4843 24.4974 75.72 26.0217 75.72H91.9017C93.426 75.72 94.6617 74.4843 94.6617 72.96V37.01C94.6617 35.4857 93.426 34.25 91.9017 34.25Z" fill="white" stroke="#BABABA" strokeLinecap="round" strokeLinejoin="round"/>
<path d="M104.061 27.9799V21.07C104.062 20.5622 103.964 20.0592 103.77 19.5897C103.577 19.1202 103.293 18.6935 102.934 18.3341C102.576 17.9746 102.15 17.6893 101.681 17.4947C101.212 17.3001 100.709 17.1999 100.201 17.2H17.7311C17.2234 17.1999 16.7206 17.3001 16.2516 17.4947C15.7827 17.6893 15.3567 17.9746 14.9981 18.3341C14.6396 18.6935 14.3554 19.1202 14.1621 19.5897C13.9687 20.0592 13.8698 20.5622 13.8711 21.07V28.07L104.061 27.9799Z" fill="#D2D2D2"/>
<path d="M40.9707 10.6599V23.1099" stroke="#BABABA" strokeLinecap="round" strokeLinejoin="round"/>
<path d="M76.9707 10.6599V23.1099" stroke="#BABABA" strokeLinecap="round" strokeLinejoin="round"/>
<path d="M90.3413 11.4899C90.8826 11.4899 91.3213 11.0511 91.3213 10.5099C91.3213 9.96867 90.8826 9.52991 90.3413 9.52991C89.8001 9.52991 89.3613 9.96867 89.3613 10.5099C89.3613 11.0511 89.8001 11.4899 90.3413 11.4899Z" fill="#CFCFCF"/>
<path d="M29.1011 12.3499C29.6423 12.3499 30.0811 11.9111 30.0811 11.3699C30.0811 10.8287 29.6423 10.3899 29.1011 10.3899C28.5599 10.3899 28.1211 10.8287 28.1211 11.3699C28.1211 11.9111 28.5599 12.3499 29.1011 12.3499Z" fill="#CFCFCF"/>
<path d="M54.1816 4.88V9.18001" stroke="#BABABA" strokeLinecap="round" strokeLinejoin="round"/>
<path d="M52.0312 7.02991H56.3313" stroke="#BABABA" strokeLinecap="round" strokeLinejoin="round"/>
<path d="M9.10156 1V5.3" stroke="#BABABA" strokeLinecap="round" strokeLinejoin="round"/>
<path d="M6.95117 3.1499H11.2612" stroke="#BABABA" strokeLinecap="round" strokeLinejoin="round"/>
<path d="M46.4609 64.23C47.0974 61.3897 48.6822 58.8509 50.9542 57.0316C53.2263 55.2123 56.0502 54.2211 58.9609 54.2211C61.8716 54.2211 64.6955 55.2123 66.9676 57.0316C69.2397 58.8509 70.8245 61.3897 71.4609 64.23" stroke="#BABABA" strokeLinecap="round" strokeLinejoin="round"/>
<path d="M73.0915 49.31C74.0746 49.31 74.8715 48.5131 74.8715 47.53C74.8715 46.5469 74.0746 45.75 73.0915 45.75C72.1085 45.75 71.3115 46.5469 71.3115 47.53C71.3115 48.5131 72.1085 49.31 73.0915 49.31Z" fill="#BABABA"/>
<path d="M44.8415 49.31C45.8246 49.31 46.6215 48.5131 46.6215 47.53C46.6215 46.5469 45.8246 45.75 44.8415 45.75C43.8585 45.75 43.0615 46.5469 43.0615 47.53C43.0615 48.5131 43.8585 49.31 44.8415 49.31Z" fill="#BABABA"/>
</svg>
